<svg xmlns="http://www.w3.org/2000/svg" version="1.1" xmlns:xlink="http://www.w3.org/1999/xlink" xmlns:svgjs="http://svgjs.com/svgjs" width="1440" height="560" preserveAspectRatio="none" viewBox="0 0 1440 560">
    <g mask="url(&quot;#SvgjsMask1009&quot;)" fill="none">
        <rect width="1440" height="560" x="0" y="0" fill="rgba(117, 34, 171, 1)"></rect>
        <path d="M 0,105 C 57.6,131.6 172.8,241.4 288,238 C 403.2,234.6 460.8,101 576,88 C 691.2,75 748.8,183 864,173 C 979.2,163 1036.8,43 1152,38 C 1267.2,33 1382.4,126 1440,148L1440 560L0 560z" fill="rgba(71, 24, 126, 1)"></path>
        <path d="M 0,531 C 96,486 288,302.6 480,306 C 672,309.4 768,537.4 960,548 C 1152,558.6 1344,396.8 1440,359L1440 560L0 560z" fill="rgba(38, 14, 71, 1)"></path>
    </g>
    <defs>
        <mask id="SvgjsMask1009">
            <rect width="1440" height="560" fill="#ffffff"></rect>
        </mask>
    </defs>
</svg>