<?xml version="1.0" encoding="iso-8859-1"?>
<!-- Generator: Adobe Illustrator 16.0.0, SVG Export Plug-In . SVG Version: 6.00 Build 0)  -->
<!DOCTYPE svg PUBLIC "-//W3C//DTD SVG 1.1//EN" "http://www.w3.org/Graphics/SVG/1.1/DTD/svg11.dtd">
<svg version="1.1" id="Capa_1" xmlns="http://www.w3.org/2000/svg" xmlns:xlink="http://www.w3.org/1999/xlink" x="0px" y="0px"
	 width="50px" height="46px" viewBox="0 0 598.771 598.771" fill="#32114d" style="enable-background:new 0 0 598.771 598.771;"
	 xml:space="preserve">
<g>
	<g>
		<path d="M59.858,576.203h305.299c4.984,0,9.824-0.631,14.443-1.816c7.463,5.05,15.408,9.367,23.791,12.912
			c17.213,7.28,35.473,10.973,54.271,10.973s37.057-3.692,54.27-10.973c16.604-7.022,31.508-17.067,44.295-29.854
			c12.787-12.788,22.832-27.69,29.855-44.294c7.279-17.213,10.971-35.472,10.971-54.271c0-18.799-3.691-37.059-10.971-54.271
			c-7.023-16.604-17.068-31.507-29.855-44.294c-12.787-12.788-27.691-22.833-44.295-29.855c-17.213-7.28-35.471-10.972-54.27-10.972
			s-37.059,3.691-54.271,10.972c-6.162,2.605-12.086,5.63-17.758,9.053c-2.295-2.626-4.678-5.187-7.162-7.67
			c-14.043-14.042-30.404-25.071-48.635-32.782c-18.896-7.993-38.945-12.045-59.587-12.045H154.766
			c-20.643,0-40.69,4.053-59.586,12.045c-18.23,7.711-34.593,18.74-48.635,32.782c-14.042,14.041-25.071,30.405-32.782,48.635
			c-7.992,18.896-12.045,38.944-12.045,59.587v78C1.718,550.122,27.8,576.203,59.858,576.203z M270.25,329.855
			c32.86,0,62.354,14.386,82.546,37.196c-9.82,11.193-17.729,23.788-23.553,37.557c-7.281,17.213-10.973,35.472-10.973,54.271
			c0,18.799,3.691,37.059,10.973,54.271c2.984,7.058,6.52,13.804,10.576,20.213H59.858c-8.45,0-15.3-6.85-15.3-15.3v-78
			c0-60.866,49.342-110.208,110.208-110.208H270.25L270.25,329.855z M457.663,362.327c53.324,0,96.551,43.229,96.551,96.553
			s-43.229,96.552-96.551,96.552c-14.881,0-28.973-3.368-41.559-9.381c-6.512-3.109-12.621-6.927-18.227-11.353
			c-6.545-5.168-12.404-11.165-17.42-17.833c-12.146-16.146-19.348-36.225-19.348-57.985c0-18.728,5.338-36.205,14.564-51.008
			c4.424-7.093,9.738-13.57,15.791-19.274c5.318-5.01,11.203-9.422,17.549-13.131C423.302,367.117,439.921,362.327,457.663,362.327z
			"/>
		<path d="M457.663,598.771c-18.865,0-37.189-3.705-54.466-11.012c-8.292-3.507-16.262-7.824-23.69-12.833
			c-4.669,1.179-9.496,1.776-14.35,1.776H59.858c-32.334,0-58.64-26.306-58.64-58.64v-78c0-20.709,4.066-40.822,12.084-59.781
			c7.736-18.291,18.801-34.707,32.889-48.794s30.504-25.153,48.794-32.889c18.959-8.019,39.072-12.084,59.781-12.084H270.25
			c20.71,0,40.824,4.066,59.781,12.084c18.288,7.735,34.704,18.8,48.794,32.889c2.323,2.322,4.646,4.804,6.909,7.38
			c5.586-3.348,11.459-6.331,17.463-8.87c17.274-7.306,35.6-11.011,54.466-11.011c18.865,0,37.189,3.705,54.464,11.011
			c16.666,7.049,31.622,17.13,44.454,29.963c12.833,12.833,22.913,27.788,29.962,44.453c7.307,17.274,11.011,35.599,11.011,54.465
			c0,18.865-3.704,37.19-11.01,54.466c-7.049,16.663-17.13,31.619-29.963,44.453c-12.833,12.833-27.789,22.913-44.454,29.962
			C494.851,595.066,476.526,598.771,457.663,598.771z M379.694,573.847l0.187,0.126c7.429,5.026,15.404,9.355,23.705,12.865
			c17.153,7.255,35.347,10.934,54.077,10.934c18.729,0,36.922-3.679,54.075-10.934c16.545-6.997,31.395-17.006,44.136-29.747
			c12.741-12.743,22.75-27.592,29.748-44.135c7.254-17.152,10.932-35.347,10.932-54.077c0-18.731-3.678-36.925-10.932-54.076
			c-6.998-16.545-17.007-31.394-29.748-44.135c-12.74-12.741-27.59-22.75-44.136-29.748c-17.151-7.255-35.345-10.933-54.075-10.933
			c-18.731,0-36.926,3.678-54.077,10.933c-6.089,2.574-12.042,5.609-17.693,9.02l-0.359,0.217l-0.275-0.315
			c-2.335-2.672-4.737-5.244-7.14-7.646c-13.998-13.997-30.308-24.99-48.476-32.675c-18.834-7.967-38.817-12.006-59.393-12.006
			H154.766c-20.574,0-40.557,4.039-59.392,12.006c-18.171,7.686-34.48,18.679-48.477,32.675
			C32.902,346.19,21.909,362.5,14.223,380.671c-7.966,18.836-12.005,38.818-12.005,59.393v78c0,31.782,25.857,57.64,57.64,57.64
			h305.299c4.846,0,9.664-0.605,14.319-1.801L379.694,573.847z M457.663,555.932c-14.622,0-28.677-3.173-41.774-9.43
			c-6.493-3.101-12.657-6.94-18.32-11.411c-6.58-5.195-12.472-11.227-17.51-17.925c-12.724-16.913-19.448-37.068-19.448-58.286
			c0-18.177,5.062-35.906,14.641-51.272c4.433-7.108,9.773-13.626,15.872-19.374c5.361-5.05,11.296-9.491,17.64-13.198
			c14.785-8.641,31.694-13.208,48.9-13.208c53.514,0,97.051,43.538,97.051,97.053S511.177,555.932,457.663,555.932z
			 M457.663,362.827c-17.028,0-33.764,4.52-48.396,13.071c-6.277,3.669-12.151,8.064-17.458,13.063
			c-6.036,5.688-11.321,12.14-15.71,19.175c-9.479,15.207-14.488,32.754-14.488,50.743c0,20.999,6.655,40.946,19.247,57.685
			c4.987,6.63,10.817,12.599,17.33,17.741c5.604,4.426,11.705,8.225,18.133,11.294c12.962,6.192,26.871,9.332,41.343,9.332
			c52.963,0,96.051-43.089,96.051-96.052C553.714,405.916,510.626,362.827,457.663,362.827z M340.728,533.863H59.858
			c-8.712,0-15.8-7.088-15.8-15.8v-78c0-61.045,49.664-110.708,110.708-110.708H270.25c31.678,0,61.901,13.619,82.92,37.365
			l0.292,0.329l-0.29,0.332c-9.788,11.156-17.684,23.746-23.469,37.421c-7.254,17.15-10.933,35.345-10.933,54.077
			s3.679,36.927,10.933,54.076c2.951,6.979,6.497,13.755,10.539,20.14L340.728,533.863z M154.766,330.355
			c-60.493,0-109.708,49.215-109.708,109.708v78c0,8.16,6.639,14.8,14.8,14.8h279.057c-3.871-6.206-7.278-12.768-10.133-19.519
			c-7.307-17.272-11.012-35.598-11.012-54.465s3.705-37.192,11.012-54.466c5.77-13.639,13.623-26.205,23.347-37.359
			c-20.816-23.33-50.633-36.699-81.879-36.699H154.766z"/>
	</g>
	<g>
		<path d="M305.694,39.099c-12.089-12.089-26.179-21.585-41.876-28.225C247.543,3.99,230.28,0.5,212.509,0.5
			c-17.772,0-35.036,3.49-51.31,10.374c-15.698,6.64-29.788,16.136-41.876,28.225c-12.088,12.089-21.585,26.178-28.225,41.876
			c-6.884,16.275-10.374,33.538-10.374,51.31s3.49,35.035,10.374,51.31c6.64,15.698,16.136,29.787,28.225,41.876
			c12.089,12.089,26.179,21.585,41.876,28.225c16.275,6.884,33.538,10.374,51.31,10.374c17.771,0,35.035-3.49,51.309-10.374
			c15.698-6.639,29.788-16.136,41.876-28.225c12.088-12.089,21.586-26.178,28.225-41.876c6.883-16.274,10.373-33.538,10.373-51.31
			s-3.49-35.035-10.373-51.31C327.28,65.277,317.782,51.188,305.694,39.099z M212.508,221.229
			c-49.123,0-88.944-39.822-88.944-88.944s39.822-88.944,88.944-88.944c49.123,0,88.944,39.822,88.944,88.944
			S261.631,221.229,212.508,221.229z"/>
		<path d="M212.509,264.569c-17.839,0-35.167-3.503-51.504-10.414c-15.757-6.665-29.9-16.196-42.035-28.332
			s-21.667-26.278-28.332-42.035c-6.91-16.336-10.414-33.665-10.414-51.504c0-17.839,3.503-35.167,10.414-51.504
			c6.665-15.757,16.197-29.899,28.332-42.035c12.135-12.135,26.277-21.667,42.035-28.332C177.34,3.503,194.668,0,212.509,0
			c17.839,0,35.167,3.503,51.504,10.414c15.758,6.665,29.9,16.197,42.035,28.332c12.137,12.138,21.669,26.28,28.332,42.035
			c6.909,16.337,10.412,33.666,10.412,51.504s-3.503,35.167-10.412,51.504c-6.663,15.754-16.195,29.897-28.332,42.035
			c-12.135,12.135-26.278,21.667-42.035,28.332C247.677,261.065,230.349,264.569,212.509,264.569z M212.509,1
			c-17.706,0-34.903,3.477-51.115,10.334c-15.639,6.615-29.675,16.075-41.718,28.118c-12.043,12.044-21.503,26.08-28.118,41.717
			c-6.857,16.213-10.334,33.41-10.334,51.115c0,17.705,3.477,34.902,10.334,51.115c6.614,15.638,16.074,29.673,28.118,41.717
			c12.043,12.043,26.08,21.503,41.718,28.118c16.213,6.857,33.41,10.334,51.115,10.334c17.705,0,34.902-3.477,51.114-10.334
			c15.638-6.614,29.674-16.074,41.718-28.118c12.045-12.046,21.506-26.082,28.117-41.717c6.857-16.213,10.334-33.411,10.334-51.115
			s-3.477-34.902-10.334-51.115c-6.611-15.635-16.072-29.671-28.117-41.717c-12.043-12.043-26.079-21.503-41.718-28.118
			C247.41,4.477,230.213,1,212.509,1z M212.508,221.729c-49.32,0-89.444-40.125-89.444-89.444s40.125-89.444,89.444-89.444
			s89.444,40.125,89.444,89.444S261.828,221.729,212.508,221.729z M212.508,43.84c-48.769,0-88.444,39.676-88.444,88.444
			s39.676,88.444,88.444,88.444s88.444-39.676,88.444-88.444S261.276,43.84,212.508,43.84z"/>
	</g>
	<g>
		<path d="M409.224,477.026c-8.365,8.365-8.365,21.928,0,30.293c3.91,3.909,8.955,5.991,14.074,6.246
			c0.357,0.018,0.715,0.027,1.072,0.027c5.482,0,10.963-2.091,15.146-6.273l18.146-18.146l18.146,18.146
			c4.184,4.183,9.664,6.273,15.146,6.273s10.965-2.091,15.146-6.273c8.365-8.364,8.365-21.927,0-30.292l-18.146-18.147
			l18.146-18.146c8.365-8.365,8.365-21.928,0-30.292c-8.365-8.366-21.928-8.366-30.293,0l-18.146,18.146l-18.146-18.146
			c-5.506-5.507-13.264-7.387-20.309-5.645c-3.658,0.905-7.125,2.785-9.984,5.645c-8.363,8.364-8.363,21.927,0,30.292l14.076,14.075
			l4.072,4.071l-4.072,4.072L409.224,477.026z"/>
		<path d="M490.956,514.093c-5.854,0-11.359-2.28-15.5-6.42l-17.793-17.793l-17.793,17.793c-4.399,4.398-10.374,6.709-16.597,6.392
			c-5.437-0.271-10.551-2.54-14.403-6.392c-4.141-4.141-6.421-9.645-6.421-15.5s2.28-11.359,6.421-15.5l17.795-17.793
			l-17.795-17.793c-8.545-8.547-8.545-22.453,0-30.999c2.823-2.823,6.356-4.821,10.218-5.776c1.726-0.427,3.504-0.643,5.284-0.643
			c5.855,0,11.359,2.279,15.498,6.419l17.793,17.793l17.793-17.793c4.141-4.141,9.645-6.421,15.5-6.421s11.359,2.28,15.5,6.421
			c4.141,4.14,6.421,9.645,6.421,15.499c0,5.855-2.28,11.359-6.421,15.5l-17.793,17.793l17.793,17.794
			c4.141,4.141,6.421,9.645,6.421,15.5c0,5.854-2.28,11.359-6.421,15.499C502.317,511.812,496.812,514.093,490.956,514.093z
			 M457.663,488.466l18.5,18.5c3.952,3.951,9.206,6.127,14.793,6.127c5.589,0,10.843-2.176,14.793-6.127
			c3.951-3.951,6.128-9.204,6.128-14.792s-2.177-10.842-6.128-14.793l-18.5-18.501l18.5-18.5c3.951-3.951,6.128-9.205,6.128-14.793
			s-2.177-10.841-6.128-14.792c-3.951-3.952-9.205-6.128-14.793-6.128s-10.842,2.176-14.793,6.128l-18.5,18.5l-18.5-18.5
			c-3.95-3.951-9.203-6.126-14.791-6.126c-1.7,0-3.397,0.206-5.044,0.613c-3.685,0.912-7.057,2.818-9.751,5.513
			c-8.155,8.156-8.155,21.428,0,29.585l18.502,18.5l-18.502,18.5c-3.951,3.951-6.128,9.205-6.128,14.793s2.177,10.842,6.128,14.793
			c3.677,3.676,8.558,5.842,13.745,6.101c5.937,0.274,11.641-1.902,15.841-6.101L457.663,488.466z"/>
	</g>
</g>
<g>
</g>
<g>
</g>
<g>
</g>
<g>
</g>
<g>
</g>
<g>
</g>
<g>
</g>
<g>
</g>
<g>
</g>
<g>
</g>
<g>
</g>
<g>
</g>
<g>
</g>
<g>
</g>
<g>
</g>
</svg>
