<?xml version="1.0" encoding="iso-8859-1"?>
<!-- Generator: Adobe Illustrator 18.1.1, SVG Export Plug-In . SVG Version: 6.00 Build 0)  -->
<svg version="1.1" id="Capa_1" xmlns="http://www.w3.org/2000/svg" xmlns:xlink="http://www.w3.org/1999/xlink" x="0px" y="0px"
	 width="60px" height="57px" viewBox="0 0 612 612" fill="#32114d" style="enable-background:new 0 0 612 612;" xml:space="preserve">
<g>
	<g>
		<g>
			<path d="M239.486,368.979c3.389,3.388,7.828,5.081,12.267,5.081c4.442,0,8.88-1.695,12.27-5.081L447.32,185.683
				c6.775-6.777,6.775-17.762,0-24.536c-6.774-6.775-17.762-6.775-24.538,0L239.486,344.441
				C232.711,351.218,232.711,362.202,239.486,368.979z"/>
			<path d="M604.149,110.573c-6.702-20.057-21.54-41.957-42.922-63.333C539.68,25.69,506.868,0,472.925,0
				c-15.226,0-29.255,5.354-40.679,15.501c-0.596,0.457-1.164,0.956-1.7,1.492l-65.823,65.821H20.838
				c-9.582,0-17.35,7.769-17.35,17.35V594.65c0,9.582,7.769,17.35,17.35,17.35h494.485c9.582,0,17.35-7.769,17.35-17.35V240.19
				c0-1.081-0.113-2.134-0.302-3.161l57.622-57.623c0.116-0.114,0.231-0.227,0.344-0.343c0.003-0.001,0.006-0.004,0.009-0.007
				l1.129-1.131c0.534-0.534,1.022-1.09,1.47-1.673C608.724,158.554,612.602,135.88,604.149,110.573z M236.139,469.784
				l-122.416,35.331l27.797-129.951L236.139,469.784z M267.877,452.447L156.023,340.592l260.97-260.974l111.856,111.856
				L267.877,452.447z M425.445,512.469H213.384l56.919-16.428c2.818-0.814,5.383-2.328,7.458-4.401l220.211-220.211v305.871H38.188
				V117.515h291.836L118.818,328.723c-2.367,2.367-3.999,5.367-4.699,8.64L73.73,526.188c-1.277,5.964,0.675,12.161,5.137,16.321
				c3.256,3.033,7.498,4.659,11.833,4.659c0.927,0,334.745,0,334.745,0 M566.49,153.768c-0.189,0.202-0.373,0.409-0.551,0.619
				l-0.124,0.123c-0.059,0.059-0.121,0.119-0.181,0.178l-12.248,12.246L441.531,55.08l12.53-12.53
				c0.217-0.184,0.432-0.373,0.641-0.571c5.315-4.965,11.107-7.278,18.224-7.278c16.963,0,40.208,13.513,63.767,37.078
				C549.597,84.681,589.886,128.729,566.49,153.768z"/>
		</g>
	</g>
</g>
<g>
</g>
<g>
</g>
<g>
</g>
<g>
</g>
<g>
</g>
<g>
</g>
<g>
</g>
<g>
</g>
<g>
</g>
<g>
</g>
<g>
</g>
<g>
</g>
<g>
</g>
<g>
</g>
<g>
</g>
</svg>
