<?xml version="1.0" encoding="iso-8859-1"?>
<!-- Uploaded to: SVG Repo, www.svgrepo.com, Generator: SVG Repo Mixer Tools -->
<svg version="1.1" id="Layer_1" xmlns="http://www.w3.org/2000/svg" xmlns:xlink="http://www.w3.org/1999/xlink" 
	 viewBox="0 0 512 512" xml:space="preserve">
<polygon style="fill:#4BAA62;" points="259.353,359.056 176.107,263.435 236.835,263.435 164.457,180.104 221.141,180.104 
	134.775,80.667 48.411,180.104 105.094,180.104 32.717,263.435 93.445,263.435 10.199,359.056 "/>
<rect x="109.529" y="359.053" style="fill:#A18E84;" width="50.496" height="76.219"/>
<polygon style="fill:#6BBD71;" points="501.801,379.69 400.06,262.825 474.281,262.825 385.823,160.979 455.101,160.979 
	349.546,39.45 243.993,160.979 313.27,160.979 224.812,262.825 299.033,262.825 197.293,379.69 "/>
<rect x="318.695" y="379.686" style="fill:#A18E84;" width="61.715" height="92.864"/>
<path d="M509.494,372.993l-87.032-99.969h51.819c3.995,0,7.623-2.333,9.28-5.968c1.657-3.635,1.04-7.903-1.58-10.92l-73.791-84.958
	h46.91c3.995,0,7.623-2.333,9.28-5.968s1.04-7.903-1.58-10.92L357.247,32.761c-1.937-2.231-4.746-3.511-7.7-3.511
	s-5.763,1.281-7.7,3.511l-105.554,121.53c-2.62,3.017-3.237,7.285-1.58,10.92c1.657,3.635,5.285,5.968,9.28,5.968h46.954
	l-60.169,69.482l-43.899-50.358h34.262c3.995,0,7.623-2.333,9.28-5.968c1.657-3.635,1.04-7.903-1.58-10.92l-86.366-99.437
	c-1.937-2.231-4.746-3.511-7.7-3.511s-5.763,1.281-7.7,3.511l-86.365,99.437c-2.62,3.017-3.237,7.285-1.58,10.92
	s5.285,5.968,9.28,5.968h34.316l-57.71,66.444c-2.62,3.017-3.237,7.285-1.58,10.92c1.657,3.635,5.285,5.968,9.28,5.968h38.327
	L2.507,352.358c-2.625,3.015-3.246,7.285-1.59,10.923c1.656,3.638,5.285,5.973,9.282,5.973H99.33v55.817H79.554
	c-5.633,0-10.199,4.566-10.199,10.199s4.566,10.199,10.199,10.199h29.975h50.493h27.643c5.633,0,10.199-4.566,10.199-10.199
	s-4.566-10.199-10.199-10.199h-17.445v-55.817h22.641l-3.255,3.728c-2.63,3.014-3.257,7.286-1.601,10.927s5.286,5.979,9.285,5.979
	H308.49v72.462H263.14c-5.633,0-10.199,4.566-10.199,10.199s4.566,10.199,10.199,10.199h55.551h61.711h36.746
	c5.633,0,10.199-4.566,10.199-10.199s-4.566-10.199-10.199-10.199h-26.547v-72.462h111.2c3.997,0,7.626-2.336,9.282-5.973
	C512.74,380.279,512.118,376.008,509.494,372.993z M276.592,273.33l-39.178,44.885l-38.952-44.885H276.592z M149.823,425.071
	h-30.095v-55.817h30.095V425.071z M160.023,348.857h-50.493H32.601l68.536-78.725c2.625-3.015,3.246-7.285,1.59-10.922
	c-1.656-3.637-5.285-5.973-9.282-5.973h-38.36l57.71-66.445c2.62-3.016,3.237-7.284,1.58-10.919
	c-1.657-3.635-5.285-5.968-9.28-5.968H70.779l63.998-73.684l63.998,73.684h-34.316c-3.998,0-7.628,2.337-9.284,5.976
	c-1.655,3.639-1.032,7.91,1.595,10.925l57.645,66.125h-38.307c-3.995,0-7.621,2.332-9.279,5.966
	c-1.658,3.634-1.042,7.901,1.576,10.918l55.466,63.915l-13.203,15.125h-50.644V348.857z M370.203,462.352H328.89v-72.462h41.313
	V462.352z M380.402,369.491h-61.711h-98.958l86.984-99.654c2.63-3.013,3.257-7.285,1.601-10.926
	c-1.655-3.641-5.286-5.979-9.285-5.979h-51.898l73.844-85.275c2.614-3.018,3.226-7.284,1.567-10.915
	c-1.659-3.631-5.284-5.96-9.277-5.96h-46.91l83.187-95.777l83.187,95.777h-46.91c-3.995,0-7.623,2.333-9.28,5.968
	c-1.657,3.635-1.04,7.903,1.58,10.92l73.791,84.958h-51.854c-3.997,0-7.626,2.336-9.282,5.973c-1.656,3.637-1.035,7.908,1.59,10.923
	l87.032,99.969h-98.997V369.491z"/>
<path d="M229.482,462.352h-9.249c-5.633,0-10.199,4.566-10.199,10.199c0,5.633,4.566,10.199,10.199,10.199h9.249
	c5.633,0,10.199-4.566,10.199-10.199C239.681,466.918,235.115,462.352,229.482,462.352z"/>
</svg>